<?xml version="1.0" encoding="UTF-8"?>
<svg version="1.1" xmlns="http://www.w3.org/2000/svg" viewBox="0 0 361 361" width="100%" height="100%" preserveAspectRatio="xMidYMid meet">
<path d="M0 0 C2.2093642 1.20631797 4.27164935 2.52797495 6.35302734 3.94335938 C7.49106812 4.6769165 7.49106812 4.6769165 8.65209961 5.42529297 C11.0455622 6.97349537 13.4177879 8.55112715 15.79052734 10.13085938 C18.17947251 11.68938914 20.57291079 13.24075442 22.96801758 14.78979492 C24.4481142 15.74993106 25.9243626 16.71603184 27.39624023 17.6887207 C30.17183433 19.51345107 32.62413849 21.07539642 35.79052734 22.13085938 C35.79052734 22.79085937 35.79052734 23.45085938 35.79052734 24.13085938 C36.51240234 24.41960938 37.23427734 24.70835938 37.97802734 25.00585938 C39.37021484 25.56273437 39.37021484 25.56273437 40.79052734 26.13085938 C41.67740234 26.46085937 42.56427734 26.79085937 43.47802734 27.13085938 C45.79052734 28.13085938 45.79052734 28.13085938 47.79052734 30.13085938 C50.78776184 32.23530062 53.3072853 33.96977869 56.79052734 35.13085938 C57.12052734 35.79085937 57.45052734 36.45085938 57.79052734 37.13085938 C57.83540283 36.51041748 57.88027832 35.88997559 57.92651367 35.25073242 C58.13788552 32.4386709 58.37020533 29.62872279 58.60302734 26.81835938 C58.7084082 25.35366211 58.7084082 25.35366211 58.81591797 23.859375 C58.89648438 22.92158203 58.97705078 21.98378906 59.06005859 21.01757812 C59.12813721 20.15350342 59.19621582 19.28942871 59.26635742 18.39916992 C59.88184872 15.73567217 60.61210745 14.75065963 62.79052734 13.13085938 C65.47802734 12.94335938 65.47802734 12.94335938 67.79052734 13.13085938 C68.12052734 12.47085938 68.45052734 11.81085937 68.79052734 11.13085938 C69.80276367 11.29150879 70.815 11.4521582 71.85791016 11.61767578 C75.51793012 12.09528703 79.02504347 12.2859278 82.71240234 12.34179688 C84.62085938 12.38433594 84.62085938 12.38433594 86.56787109 12.42773438 C88.5646963 12.46700331 90.56155291 12.50613409 92.55859375 12.53222656 C94.5059268 12.55978092 96.45295456 12.60676204 98.39990234 12.65429688 C99.55458008 12.67411621 100.70925781 12.69393555 101.89892578 12.71435547 C104.79052734 13.13085938 104.79052734 13.13085938 106.44422913 14.3200531 C108.28091021 16.79043715 108.18784858 18.45673523 108.22290039 21.52026367 C108.24269455 22.62117844 108.26248871 23.7220932 108.28288269 24.85636902 C108.29246758 26.63773003 108.29246758 26.63773003 108.30224609 28.45507812 C108.3291729 30.27988457 108.3291729 30.27988457 108.35664368 32.14155579 C108.41090132 36.0337882 108.44469284 39.92589691 108.47802734 43.81835938 C108.51118666 46.45444436 108.54567501 49.09051298 108.58154297 51.7265625 C108.6666368 58.19455054 108.73492122 64.66255428 108.79052734 71.13085938 C109.62040916 71.52938362 109.62040916 71.52938362 110.46705627 71.93595886 C111.1906987 72.28926773 111.91434113 72.6425766 112.65991211 73.0065918 C113.37816666 73.35477463 114.0964212 73.70295746 114.83644104 74.06169128 C117.27263235 75.39464061 118.88510644 77.12412774 120.79052734 79.13085938 C122.96107006 80.59143681 125.11371495 81.9757795 127.35302734 83.31835938 C127.92988281 83.67349609 128.50673828 84.02863281 129.10107422 84.39453125 C131.6464833 85.94174069 133.95399126 87.18534735 136.79052734 88.13085938 C136.79052734 88.79085937 136.79052734 89.45085937 136.79052734 90.13085938 C137.48017578 90.37707031 138.16982422 90.62328125 138.88037109 90.87695312 C142.87939558 92.60002274 146.41027769 94.93889817 150.06201172 97.296875 C152.96740089 99.13525575 155.44837943 100.38136167 158.79052734 101.13085938 C161.74758791 104.61596647 162.32162156 107.76871951 162.14599609 112.20117188 C161.56924725 115.33209415 160.06257203 116.98503939 157.79052734 119.13085938 C153.4090001 121.67467994 149.74648837 122.04435219 144.79052734 121.13085938 C141.67724609 119.54467773 141.67724609 119.54467773 138.47802734 117.59570312 C137.40939453 116.95109131 136.34076172 116.30647949 135.23974609 115.64233398 C134.02738281 114.89415405 134.02738281 114.89415405 132.79052734 114.13085938 C132.79421452 115.04600311 132.79790169 115.96114685 132.80170059 116.90402222 C132.89007033 139.18013463 132.95624612 161.4562168 132.99777603 183.73246765 C133.01839384 194.50514016 133.04649961 205.2776956 133.09228516 216.05029297 C133.13217672 225.4406136 133.15796584 234.83084943 133.16688132 244.22125244 C133.17209212 249.19259132 133.18432327 254.16368765 133.21344757 259.13494873 C133.24065324 263.81676911 133.24896191 268.49824763 133.24295807 273.18013954 C133.244056 274.89578422 133.25197919 276.61144065 133.26734924 278.32701683 C133.40497466 294.48482695 133.40497466 294.48482695 128.79052734 301.13085938 C124.93006726 304.79829645 121.16968707 307.34453088 115.76782227 307.44970703 C114.97719391 307.46957169 114.18656555 307.48943634 113.37197876 307.50990295 C112.51365448 307.5214592 111.6553302 307.53301544 110.77099609 307.54492188 C109.85982025 307.56433334 108.94864441 307.58374481 108.00985718 307.60374451 C104.99934355 307.66453083 101.98881201 307.71063408 98.97802734 307.75585938 C96.88874726 307.79386118 94.7994732 307.83219575 92.71020508 307.87084961 C70.4051592 308.25708004 48.09794992 308.23005774 25.79052734 308.13085938 C25.79052734 306.81085938 25.79052734 305.49085938 25.79052734 304.13085938 C26.89460938 303.55078125 26.89460938 303.55078125 28.02099609 302.95898438 C32.9778729 300.3135706 37.43349918 297.6957006 41.79052734 294.13085938 C44.10302734 293.38085938 44.10302734 293.38085938 45.79052734 293.13085938 C45.79052734 292.47085937 45.79052734 291.81085938 45.79052734 291.13085938 C51.54689815 287.88600548 55.78606113 286.50383886 62.35302734 286.38085938 C63.1800415 286.34976074 64.00705566 286.31866211 64.85913086 286.28662109 C70.5114662 286.10908207 76.15983555 286.13482649 81.81396484 286.18554688 C82.50725388 286.19046143 83.20054291 286.19537598 83.9148407 286.20043945 C87.39127688 286.22580663 90.8658163 286.26798274 94.34155273 286.34277344 C96.26342407 286.36549316 96.26342407 286.36549316 98.22412109 286.38867188 C99.36937256 286.41074707 100.51462402 286.43282227 101.69458008 286.45556641 C105.29517835 286.07793091 106.96536909 285.38446627 109.79052734 283.13085938 C110.51672392 280.25806147 110.51672392 280.25806147 110.3581543 276.9152832 C110.35777664 275.63418167 110.35739899 274.35308014 110.35700989 273.03315735 C110.33147651 271.63472526 110.30539653 270.23630306 110.27880859 268.83789062 C110.26948186 267.40729507 110.26236508 265.97668353 110.25737 264.54606628 C110.23828848 260.78256048 110.1891799 257.02002116 110.1338501 253.25689697 C110.08268119 249.41618933 110.05986113 245.57532533 110.03466797 241.734375 C109.98106043 234.1994294 109.89573602 226.66527985 109.79052734 219.13085938 C109.13052734 218.80085937 108.47052734 218.47085938 107.79052734 218.13085938 C107.50967285 218.6080542 107.22881836 219.08524902 106.93945312 219.5769043 C97.66233185 235.25768555 87.36411279 248.96367118 74.79052734 262.13085938 C73.88753906 263.113125 73.88753906 263.113125 72.96630859 264.11523438 C67.7511285 269.63255336 61.61177058 274.11944105 55.60595703 278.72998047 C53.88862697 280.05516066 52.18528794 281.39614372 50.48583984 282.74414062 C42.90281585 288.72873112 35.00972441 294.06225282 26.79052734 299.13085938 C26.06075684 299.58138672 25.33098633 300.03191406 24.57910156 300.49609375 C20.70836123 302.88084069 16.82937226 305.250991 12.93896484 307.60351562 C10.50165161 309.07896256 8.09760911 310.57906345 5.70458984 312.12695312 C0.80897427 315.26767881 -3.27352258 317.63969351 -9.20947266 317.13085938 C-17.34577638 314.73608233 -24.47571856 310.22237361 -31.64697266 305.81835938 C-32.70207031 305.17962891 -33.75716797 304.54089844 -34.84423828 303.8828125 C-65.91077976 285.01347316 -93.54637286 264.10223519 -114.05541992 233.72802734 C-115.25333779 231.98098619 -115.25333779 231.98098619 -117.20947266 230.13085938 C-117.89601306 228.91991229 -118.54019595 227.68455075 -119.15478516 226.43554688 C-119.68652344 225.36240234 -119.68652344 225.36240234 -120.22900391 224.26757812 C-120.59380859 223.52121094 -120.95861328 222.77484375 -121.33447266 222.00585938 C-121.70701172 221.25175781 -122.07955078 220.49765625 -122.46337891 219.72070312 C-123.38234985 217.85919789 -124.2963848 215.99525737 -125.20947266 214.13085938 C-124.71447266 217.59585938 -124.71447266 217.59585938 -124.20947266 221.13085938 C-124.86947266 221.13085938 -125.52947266 221.13085938 -126.20947266 221.13085938 C-125.96390625 222.8244458 -125.96390625 222.8244458 -125.71337891 224.55224609 C-125.1373641 229.18157142 -125.09933632 233.72961887 -125.14697266 238.38867188 C-125.15075928 239.25418671 -125.1545459 240.11970154 -125.15844727 241.01144409 C-125.17459348 244.67338168 -125.20258495 248.33520226 -125.22998047 251.99707031 C-125.3034545 262.76681658 -125.21777585 273.39738183 -124.20947266 284.13085938 C-123.44634766 284.27523438 -122.68322266 284.41960937 -121.89697266 284.56835938 C-119.20947266 285.13085938 -119.20947266 285.13085938 -116.20947266 286.13085938 C-114.10585387 286.1788735 -112.0008177 286.16764792 -109.89697266 286.13085938 C-108.4646809 286.12965649 -107.0323855 286.13121003 -105.60009766 286.13476562 C-102.65306254 286.13991778 -99.70901761 286.12341635 -96.76220703 286.07958984 C-68.11575809 285.72579205 -68.11575809 285.72579205 -55.20947266 296.13085938 C-54.21947266 296.46085937 -53.22947266 296.79085938 -52.20947266 297.13085938 C-50.52469922 298.44123872 -48.86138757 299.77929263 -47.20947266 301.13085938 C-45.94211951 302.01089254 -44.67118675 302.88578995 -43.39697266 303.75585938 C-41.81916016 304.93148437 -41.81916016 304.93148437 -40.20947266 306.13085938 C-40.20947266 306.79085938 -40.20947266 307.45085937 -40.20947266 308.13085938 C-50.97173001 308.15410877 -61.73398131 308.17183838 -72.49625874 308.18267155 C-77.49450383 308.18787293 -82.49273164 308.19492033 -87.4909668 308.20629883 C-92.32149104 308.21722575 -97.15199875 308.22315685 -101.98253441 308.22573662 C-103.81835376 308.22757329 -105.65417228 308.23115959 -107.48998451 308.23658943 C-135.32411027 308.31558338 -135.32411027 308.31558338 -141.20947266 303.13085938 C-145.78431709 298.25684255 -147.32239176 295.30314837 -147.52587891 288.61132812 C-147.54666 287.95691238 -147.5674411 287.30249664 -147.58885193 286.62825012 C-147.63215522 285.23538774 -147.67319231 283.84245336 -147.7121582 282.44946289 C-147.77067597 280.36455859 -147.83608138 278.27996762 -147.90283203 276.1953125 C-148.13120755 268.75785711 -148.24262324 261.33548479 -148.12719727 253.89379883 C-148.11833757 251.18321572 -148.11833757 251.18321572 -148.74157715 248.80989075 C-149.25783805 245.8539334 -149.08760139 243.48733079 -148.77807617 240.50341797 C-147.82898134 228.74804958 -148.08686049 216.95516456 -148.11181641 205.16992188 C-148.11368443 202.56676257 -148.11510652 199.9636029 -148.11610413 197.36044312 C-148.1195126 191.24456218 -148.12736781 185.12870226 -148.13745362 179.01282918 C-148.14869806 172.0404511 -148.15414603 165.06807207 -148.15914905 158.09568715 C-148.16955318 143.77406817 -148.18710023 129.45246442 -148.20947266 115.13085938 C-149.01916504 115.5567334 -149.82885742 115.98260742 -150.66308594 116.42138672 C-152.26772705 117.24823975 -152.26772705 117.24823975 -153.90478516 118.09179688 C-154.96197754 118.6414209 -156.01916992 119.19104492 -157.10839844 119.75732422 C-161.28901008 121.60901066 -164.74904839 122.1642646 -169.20947266 121.13085938 C-172.74318823 119.39612627 -174.61147033 118.11886321 -176.64697266 114.75585938 C-177.35430109 111.45499335 -177.15589675 109.37574198 -176.20947266 106.13085938 C-174.27197266 103.25585938 -174.27197266 103.25585938 -172.20947266 101.13085938 C-171.54947266 101.13085938 -170.88947266 101.13085938 -170.20947266 101.13085938 C-170.20947266 100.47085938 -170.20947266 99.81085938 -170.20947266 99.13085938 C-169.43861328 98.7209375 -168.66775391 98.31101562 -167.87353516 97.88867188 C-166.87064453 97.34984375 -165.86775391 96.81101562 -164.83447266 96.25585938 C-163.83673828 95.7221875 -162.83900391 95.18851562 -161.81103516 94.63867188 C-159.1559887 93.24884558 -159.1559887 93.24884558 -157.20947266 91.13085938 C-155.41455153 90.03892501 -153.59860266 88.98137929 -151.77197266 87.94335938 C-141.40258063 82.3440857 -141.40258063 82.3440857 -132.20947266 75.13085938 C-130.20947266 74.13085938 -128.20947266 73.13085938 -126.20947266 72.13085938 C-125.54947266 71.47085938 -124.88947266 70.81085938 -124.20947266 70.13085938 C-121.66973594 68.48346259 -119.28698253 67.16080637 -116.45947266 66.06835938 C-114.04714272 65.35088273 -114.04714272 65.35088273 -113.20947266 63.13085938 C-111.43212891 61.84179688 -111.43212891 61.84179688 -109.27197266 60.50585938 C-108.56169922 60.05984375 -107.85142578 59.61382812 -107.11962891 59.15429688 C-105.20947266 58.13085938 -105.20947266 58.13085938 -103.20947266 58.13085938 C-103.20947266 57.47085938 -103.20947266 56.81085938 -103.20947266 56.13085938 C-102.46181641 55.73253906 -101.71416016 55.33421875 -100.94384766 54.92382812 C-99.46658203 54.12912109 -99.46658203 54.12912109 -97.95947266 53.31835938 C-96.98494141 52.79628906 -96.01041016 52.27421875 -95.00634766 51.73632812 C-92.23154435 50.22330419 -92.23154435 50.22330419 -89.97509766 48.43164062 C-88.20947266 47.13085938 -88.20947266 47.13085938 -86.20947266 47.13085938 C-86.20947266 46.47085938 -86.20947266 45.81085938 -86.20947266 45.13085938 C-85.53142578 44.77894531 -84.85337891 44.42703125 -84.15478516 44.06445312 C-78.31203573 40.9650445 -72.84756489 37.63515724 -67.49853516 33.74414062 C-60.95281406 29.13085938 -60.95281406 29.13085938 -58.20947266 29.13085938 C-57.87947266 28.47085938 -57.54947266 27.81085937 -57.20947266 27.13085938 C-55.598444 25.99641451 -53.9445585 24.92241353 -52.27197266 23.88085938 C-51.28712891 23.26339844 -50.30228516 22.6459375 -49.28759766 22.00976562 C-45.56598343 19.73806963 -41.80203195 17.54498712 -38.01025391 15.39257812 C-37.41599609 14.97621094 -36.82173828 14.55984375 -36.20947266 14.13085938 C-36.20947266 13.47085938 -36.20947266 12.81085937 -36.20947266 12.13085938 C-35.63197266 12.00710937 -35.05447266 11.88335937 -34.45947266 11.75585938 C-31.03807111 10.80547006 -28.72791698 9.6493037 -26.20947266 7.13085938 C-24.06373098 5.6945968 -21.91881552 4.33616582 -19.70947266 3.00585938 C-18.84708984 2.44705078 -18.84708984 2.44705078 -17.96728516 1.87695312 C-12.30031176 -1.50095896 -6.26422275 -2.46415834 0 0 Z M109.79052734 211.13085938 C109.46052734 212.45085937 109.13052734 213.77085937 108.79052734 215.13085938 C109.78052734 215.62585938 109.78052734 215.62585938 110.79052734 216.13085938 C110.79052734 214.48085937 110.79052734 212.83085937 110.79052734 211.13085938 C110.46052734 211.13085938 110.13052734 211.13085938 109.79052734 211.13085938 Z " fill="#4AB651" transform="translate(183.20947265625,26.869140625)"/>
<path d="M0 0 C1.21623047 0.36544922 1.21623047 0.36544922 2.45703125 0.73828125 C15.45215062 5.16795845 25.82936307 15.15560199 35 25 C36.10021484 23.89398438 36.10021484 23.89398438 37.22265625 22.765625 C53.52467303 6.5323931 69.50101357 -3.28080735 92.91357422 -3.31689453 C100.24781745 -3.21448569 106.32829311 -2.18219601 113 1 C114.40958984 1.63615234 114.40958984 1.63615234 115.84765625 2.28515625 C128.88418308 8.7227259 135.85224533 18.76633699 141 32 C142.1521736 35.69556098 142.74063432 39.14334505 143 43 C143.11988281 44.41539062 143.11988281 44.41539062 143.2421875 45.859375 C143.94104179 62.05635083 139.3414022 77.73281427 132 92 C131.66339355 92.66483398 131.32678711 93.32966797 130.97998047 94.01464844 C123.19956485 109.18337286 112.69651472 121.70966223 101 134 C100.34773437 134.70511719 99.69546875 135.41023437 99.0234375 136.13671875 C92.98538688 142.47024844 86.02807784 147.81238216 79 153 C78.67 153 78.34 153 78 153 C77.9906543 151.8447583 77.98130859 150.6895166 77.97167969 149.49926758 C77.9317339 145.20314318 77.86596254 140.90773144 77.79248047 136.61206055 C77.76429741 134.75473197 77.7430696 132.89728405 77.72900391 131.03979492 C77.70753716 128.36575339 77.66086931 125.69314265 77.609375 123.01953125 C77.60753204 121.7786248 77.60753204 121.7786248 77.60565186 120.51264954 C77.50856453 116.67008875 77.28294636 114.47890707 75.29418945 111.11279297 C72.84924054 108.86116076 70.70218804 107.55485988 67.68359375 106.17578125 C66.67232422 105.70462891 65.66105469 105.23347656 64.61914062 104.74804688 C63.04422852 104.03745117 63.04422852 104.03745117 61.4375 103.3125 C59.35204319 102.35204191 57.2673712 101.38987739 55.18359375 100.42578125 C54.26118896 100.00723877 53.33878418 99.58869629 52.38842773 99.1574707 C50 98 50 98 47 96 C46.26644683 90.22326877 46.90188274 86.75873451 49.5 81.5625 C52.0277548 76.32434916 53.79409173 71.75219101 52 66 C48.64635639 61.4496205 44.42174236 56.95671905 39 55 C31.83271696 54.25260952 27.50795418 57.81664893 22 62 C15.22135369 67.90175747 9.80942907 74.4322219 5 82 C4.4534375 82.84820312 3.906875 83.69640625 3.34375 84.5703125 C-1.60938423 92.50989531 -4.54756161 99.24694177 -4.375 108.6875 C-4.36919922 109.46988037 -4.36339844 110.25226074 -4.35742188 111.05834961 C-4.22610837 117.00210963 -3.18113235 122.43010445 -1.69140625 128.1875 C0.64868653 137.70652148 -2.23457418 143.61795638 -7 152 C-19.99741578 147.51252013 -33.47653175 132.5128859 -42 122 C-42.81855469 121.030625 -43.63710937 120.06125 -44.48046875 119.0625 C-55.87743214 105.31874254 -64.67464788 90.06286292 -70 73 C-70.33773437 71.95070313 -70.67546875 70.90140625 -71.0234375 69.8203125 C-75.31628669 54.34242504 -74.52604665 36.73377742 -67.375 22.3125 C-60.20071476 10.06157067 -48.35527618 1.42593751 -34.72265625 -2.34375 C-23.11682759 -4.38968832 -11.16446237 -3.82161717 0 0 Z " fill="#F3FCF3" transform="translate(141,147)"/>
<path d="M0 0 C8.10184032 4.64408741 16.0313842 9.49586331 23.875 14.5625 C26.07275728 15.97550835 28.27067709 17.38826394 30.46875 18.80078125 C31.561875 19.50412598 32.655 20.2074707 33.78125 20.93212891 C38.63713698 24.0517711 43.50484006 27.15270156 48.375 30.25 C49.27565186 30.82290771 50.17630371 31.39581543 51.10424805 31.98608398 C60.05691792 37.67732541 69.02685176 43.34112137 78 49 C79.54430258 49.973908 81.08857333 50.94786646 82.6328125 51.921875 C83.40431641 52.40575684 84.17582031 52.88963867 84.97070312 53.38818359 C86.53222666 54.37960127 88.08318108 55.38786448 89.62304688 56.41259766 C93.99281459 59.28739712 98.24999239 61.5927853 103.0859375 63.6015625 C115.21407672 69.10413529 115.21407672 69.10413529 119 75 C122.28625031 86.30475752 120.30352879 99.49066118 119 111 C118.38286133 110.2251123 117.76572266 109.45022461 117.12988281 108.65185547 C113.6038407 104.26168245 109.85296758 100.10466898 106 96 C105.40574219 95.36578125 104.81148437 94.7315625 104.19921875 94.078125 C100.03640289 90.053762 95.36123308 87.37884078 90.25 84.75 C89.30338501 84.2557251 89.30338501 84.2557251 88.33764648 83.75146484 C78.39060832 78.87460977 68.17154916 77.43610591 57.1875 77.5 C56.05111084 77.50499512 54.91472168 77.50999023 53.74389648 77.51513672 C44.64426502 77.70331993 37.29144392 79.06208365 29 83 C28.01257813 83.45761719 27.02515625 83.91523438 26.0078125 84.38671875 C16.50427158 89.1911404 8.59578335 95.66848419 2 104 C0.5459375 102.7625 0.5459375 102.7625 -0.9375 101.5 C-1.58589844 100.95085937 -2.23429687 100.40171875 -2.90234375 99.8359375 C-4.28212703 98.62830596 -5.63041169 97.38354109 -6.94140625 96.1015625 C-21.71731417 81.91444787 -39.898442 77.35315674 -59.93432617 77.52905273 C-67.97270519 77.75896464 -74.61227446 78.65461485 -82 82 C-83.14210937 82.474375 -84.28421875 82.94875 -85.4609375 83.4375 C-97.79641127 89.00318014 -109.83128528 98.66257055 -116 111 C-116.66 111 -117.32 111 -118 111 C-120.35130136 80.83099488 -120.35130136 80.83099488 -116.80175781 73.53808594 C-113.61961358 70.02987759 -109.56495957 68.45957687 -105.18066406 66.87695312 C-101.43133122 65.36916052 -98.25742466 63.02365498 -94.9375 60.75 C-93.50971157 59.82187969 -92.07861115 58.89883793 -90.64453125 57.98046875 C-89.89896973 57.5014209 -89.1534082 57.02237305 -88.38525391 56.52880859 C-77.01642783 49.24205436 -65.61172151 42.01201712 -54.1875 34.8125 C-47.71776696 30.73390025 -41.27936901 26.61061921 -34.86547852 22.44482422 C-27.03097549 17.36027639 -19.15890857 12.33447714 -11.28857422 7.30566406 C-10.25748535 6.64663086 -9.22639648 5.98759766 -8.1640625 5.30859375 C-7.24061035 4.71876709 -6.3171582 4.12894043 -5.36572266 3.52124023 C-3.56631968 2.36416284 -1.78001971 1.18667981 0 0 Z " fill="#FCFDFC" transform="translate(175,51)"/>
<path d="M0 0 C4.38259748 1.54770051 8.69621342 3.24612607 13 5 C12.67 5.9075 12.34 6.815 12 7.75 C10.80394277 11.07045807 10.80394277 11.07045807 11 15 C13.66389844 14.03803668 15.75417555 13.20617535 17.9375 11.375 C20.6957923 9.53613846 22.74868158 9.90268163 26 10 C26.37331178 15.79762766 26.64398045 21.58816806 26.82397461 27.39501953 C26.89902336 29.365009 27.00111945 31.33417325 27.1315918 33.30126953 C28.15575333 49.14966723 28.15575333 49.14966723 24.61325073 53.83355713 C21.10049567 57.0259098 17.10584219 59.15433175 12.82138062 61.14129639 C10.52566624 62.22362823 8.44220814 63.55132586 6.32421875 64.9453125 C5.11421645 65.67559485 3.90212229 66.40242781 2.6875 67.125 C2.05650391 67.50914062 1.42550781 67.89328125 0.77539062 68.2890625 C-3.75090681 71 -3.75090681 71 -6 71 C-6.34535255 57.68474059 -6.34535255 57.68474059 -5 51.6875 C-2.34721882 39.72093964 -6.28894674 30.19544912 -10.48046875 19.0625 C-10.71419189 18.43239014 -10.94791504 17.80228027 -11.1887207 17.15307617 C-11.84012697 15.40602819 -12.50941566 13.6656785 -13.1796875 11.92578125 C-14.00779781 8.97218781 -14.17944629 7.77444879 -13 5 C-8.95064269 -0.61685046 -6.6629045 -1.6712601 0 0 Z " fill="#F3FCF3" transform="translate(187,254)"/>
<path d="M0 0 C3.89697826 2.13951748 6.64242605 4.23603467 9 8 C9.80503292 12.06541625 9.95254041 16.23956421 7.9453125 19.94921875 C5.66513355 22.73535457 3.68598265 24.72873192 0.08203125 25.30859375 C-4.62920205 25.57618531 -7.33499573 25.24366823 -11 22.125 C-14.1121316 19.14254055 -14.94239246 17.6912905 -15.3125 13.25 C-15.24840363 8.83536244 -13.90882494 6.38052628 -11 3 C-7.33394266 0.1057442 -4.63689657 -0.6624138 0 0 Z " fill="#43B24B" transform="translate(202,187)"/>
<path d="M0 0 C7.19648471 9.14113251 7.53288195 18.40312642 7.25 29.625 C7.22988824 31.0247138 7.21164579 32.42445576 7.1953125 33.82421875 C7.14851718 37.21687915 7.08296363 40.60806384 7 44 C5.22821947 43.043419 3.45760924 42.08467012 1.6875 41.125 C0.70136719 40.59132813 -0.28476563 40.05765625 -1.30078125 39.5078125 C-4 38 -4 38 -7 36 C-5.58550246 31.88509805 -3.49064734 28.48128408 -1.12109375 24.8671875 C3.08731332 17.85806353 1.19186302 7.74710963 0 0 Z " fill="#F4FCF4" transform="translate(156,278)"/>
<path d="M0 0 C0.66 0 1.32 0 2 0 C3.1630051 1.40244732 4.32197298 2.80842825 5.4609375 4.23046875 C7.70361416 6.8089777 10.25090604 8.95104844 12.8515625 11.16015625 C14.26521258 12.37075478 15.6569561 13.60749416 17.0234375 14.87109375 C23.55759751 20.90729733 30.69420442 25.96219101 38 31 C38.84594727 31.59119629 38.84594727 31.59119629 39.70898438 32.19433594 C51.67524023 40.54013924 64.28682038 47.85839901 77 55 C77.73234863 55.42958008 78.46469727 55.85916016 79.21923828 56.30175781 C83.72332319 58.80244156 87.82156294 60.11843748 93 59 C96.49826496 57.59084587 99.69030712 55.7842406 102.9375 53.875 C103.77990234 53.400625 104.62230469 52.92625 105.49023438 52.4375 C111.16389386 49.20539221 116.61372079 45.68856309 122 42 C122.66 42.33 123.32 42.66 124 43 C117.72478419 47.72657643 111.1213006 51.86151066 104.375 55.875 C103.57602295 56.36331299 102.7770459 56.85162598 101.95385742 57.35473633 C96.25515484 60.69381528 91.35232188 63.11890263 84.71606445 61.4128418 C77.52368397 58.77825173 71.06353445 54.6799186 64.5625 50.6875 C63.50740234 50.04876953 62.45230469 49.41003906 61.36523438 48.75195312 C40.66891643 36.18132801 21.6351255 22.6393829 4 6 C3.22527344 5.27425781 2.45054688 4.54851562 1.65234375 3.80078125 C0 2 0 2 0 0 Z " fill="#3F9C43" transform="translate(87,282)"/>
<path d="M0 0 C0.33 0 0.66 0 1 0 C1.02505615 1.02883301 1.0501123 2.05766602 1.07592773 3.11767578 C1.17046052 6.95324067 1.2705672 10.78864371 1.37231445 14.62402344 C1.41549049 16.28056031 1.45717697 17.93713672 1.49731445 19.59375 C1.5554393 21.9818918 1.61900948 24.3698377 1.68359375 26.7578125 C1.70866249 27.85973434 1.70866249 27.85973434 1.73423767 28.98391724 C1.85070592 33.0730966 2.22369622 36.98311143 3 41 C3.66 41 4.32 41 5 41 C5.598125 41.78375 6.19625 42.5675 6.8125 43.375 C9.27514516 46.33017419 10.36296414 46.92452317 14 48 C16.76472915 48.17721052 19.42460244 48.25324861 22.18676758 48.22705078 C22.99704407 48.22734283 23.80732056 48.22763489 24.64215088 48.22793579 C27.30972145 48.2265469 29.97700971 48.21100652 32.64453125 48.1953125 C34.49826403 48.1915808 36.35199879 48.18873457 38.20573425 48.18673706 C43.07686846 48.17911295 47.94788278 48.15947494 52.81896973 48.1373291 C57.79270811 48.11684435 62.76646593 48.10772972 67.74023438 48.09765625 C77.49354216 48.07622791 87.2467611 48.0421067 97 48 C97 47.34 97 46.68 97 46 C97.33 45.01 97.66 44.02 98 43 C99.50539661 43.94983358 101.00420347 44.91011891 102.5 45.875 C103.3353125 46.40867187 104.170625 46.94234375 105.03125 47.4921875 C105.6809375 47.98976563 106.330625 48.48734375 107 49 C107 49.66 107 50.32 107 51 C96.23774265 51.0232494 85.47549135 51.04097901 74.71321392 51.05181217 C69.71496883 51.05701356 64.71674101 51.06406096 59.71850586 51.07543945 C54.88798161 51.08636637 50.05747391 51.09229748 45.22693825 51.09487724 C43.3911189 51.09671391 41.55530038 51.10030022 39.71948814 51.10573006 C11.88536238 51.184724 11.88536238 51.184724 6 46 C1.33457741 41.02948166 -0.11626897 38.0592761 -0.31640625 31.234375 C-0.33718735 30.56335754 -0.35796844 29.89234009 -0.37937927 29.20098877 C-0.44478577 27.05076391 -0.50360765 24.9004121 -0.5625 22.75 C-0.60571211 21.3163939 -0.64932725 19.88279989 -0.69335938 18.44921875 C-0.8073968 14.63301323 -0.91707881 10.81704117 -1 7 C-1.02441162 5.88012695 -1.04882324 4.76025391 -1.07397461 3.60644531 C-1 1 -1 1 0 0 Z " fill="#2F9734" transform="translate(36,284)"/>
<path d="M0 0 C1.52270508 0.04060547 1.52270508 0.04060547 3.07617188 0.08203125 C4.05005859 0.12199219 5.02394531 0.16195312 6.02734375 0.203125 C7.36720337 0.25194824 7.36720337 0.25194824 8.73413086 0.30175781 C11.57976978 0.84958135 12.31933004 1.46039753 14.0625 3.75 C14.46122742 6.23674011 14.46122742 6.23674011 14.49487305 9.23120117 C14.52456429 10.91260445 14.52456429 10.91260445 14.55485535 12.62797546 C14.56124527 13.83742325 14.56763519 15.04687103 14.57421875 16.29296875 C14.60114555 18.15106926 14.60114555 18.15106926 14.62861633 20.04670715 C14.67365077 23.3362946 14.7059265 26.62568459 14.73205566 29.91546631 C14.76185939 33.27386017 14.80839023 36.63201762 14.85351562 39.99023438 C14.9386132 46.57671397 15.00689613 53.16320899 15.0625 59.75 C14.0725 60.245 14.0725 60.245 13.0625 60.75 C13.05219254 60.06761765 13.04188507 59.38523529 13.03126526 58.68217468 C12.92326179 51.59343768 12.80865869 44.50482937 12.69018555 37.41625977 C12.64681696 34.76915168 12.60514332 32.12201528 12.56518555 29.47485352 C12.50752977 25.674555 12.44382156 21.87439932 12.37890625 18.07421875 C12.36219376 16.88664474 12.34548126 15.69907074 12.32826233 14.47550964 C12.30831711 13.37459488 12.28837189 12.27368011 12.26782227 11.1394043 C12.24450584 9.68379341 12.24450584 9.68379341 12.22071838 8.19877625 C12.15784871 5.61204325 12.15784871 5.61204325 11.0625 2.75 C3.1425 2.75 -4.7775 2.75 -12.9375 2.75 C-12.9375 2.09 -12.9375 1.43 -12.9375 0.75 C-9.06747903 -1.18501048 -4.23850248 -0.17693938 0 0 Z " fill="#3DA140" transform="translate(276.9375,39.25)"/>
<path d="M0 0 C5.57025598 4.77873087 7.67177535 12.8284943 8.40087891 19.87353516 C8.48892703 23.86127892 8.44048726 27.82750799 8.3125 31.8125 C8.28733494 33.19852656 8.26453652 34.58459818 8.24414062 35.97070312 C8.18587774 39.31499252 8.10412214 42.65687829 8 46 C3.91418855 44.69706374 0.65025978 43.33199924 -2.875 40.875 C-3.65617188 40.33617187 -4.43734375 39.79734375 -5.2421875 39.2421875 C-5.82226562 38.83226562 -6.40234375 38.42234375 -7 38 C-6.01 37.505 -6.01 37.505 -5 37 C-2.6171875 38.21484375 -2.6171875 38.21484375 0.125 39.9375 C1.03507813 40.50339844 1.94515625 41.06929688 2.8828125 41.65234375 C3.93082031 42.31943359 3.93082031 42.31943359 5 43 C5.12552064 39.08993536 5.21521802 35.18068272 5.2746582 31.26904297 C5.31156222 29.30003527 5.3751618 27.33158505 5.43945312 25.36328125 C5.54056141 17.3959484 4.56661755 11.48191308 1.08276367 4.28417969 C0 2 0 2 0 0 Z " fill="#1A9A26" transform="translate(157,278)"/>
<path d="M0 0 C3.46941546 0.45822468 6.67395049 0.89131683 10 2 C12.10361879 2.04801412 14.20865496 2.03678855 16.3125 2 C24.8823813 1.90803054 33.43695792 2.20009413 42 2.5 C42.68945709 2.52400879 43.37891418 2.54801758 44.08926392 2.57275391 C48.05964177 2.71159523 52.02987117 2.85422183 56 3 C56 3.33 56 3.66 56 4 C43.80870636 4.71638242 31.61826378 5.14296731 19.40652466 5.23217773 C18.01183749 5.24404793 16.61718482 5.26112813 15.22262573 5.28344727 C13.24884735 5.31331425 11.27477329 5.32115636 9.30078125 5.328125 C7.58628784 5.34214355 7.58628784 5.34214355 5.8371582 5.35644531 C3 5 3 5 1.10620117 3.60449219 C0 2 0 2 0 0 Z " fill="#183F1B" transform="translate(57,311)"/>
<path d="M0 0 C2 2 2 2 2.22705078 5.53173828 C2.22673363 7.04463331 2.21540633 8.55755088 2.1953125 10.0703125 C2.1924826 10.86654022 2.18965271 11.66276794 2.18673706 12.48312378 C2.1755264 15.03056763 2.15042062 17.57766211 2.125 20.125 C2.11497133 21.85025535 2.10584528 23.57551619 2.09765625 25.30078125 C2.07558422 29.53398914 2.04104867 33.7669353 2 38 C2.99 38.33 3.98 38.66 5 39 C4.34 39 3.68 39 3 39 C2.67 39.99 2.34 40.98 2 42 C1.34 42 0.68 42 0 42 C0 28.14 0 14.28 0 0 Z " fill="#22A12F" transform="translate(213,264)"/>
<path d="M0 0 C1.32 0.33 2.64 0.66 4 1 C3.01 2.485 3.01 2.485 2 4 C1.67 3.67 1.34 3.34 1 3 C0.71914551 3.47719482 0.43829102 3.95438965 0.14892578 4.44604492 C-5.99198865 14.82580962 -12.35556823 24.65970453 -20 34 C-20.43860352 34.55751953 -20.87720703 35.11503906 -21.32910156 35.68945312 C-22.50754805 37.16358882 -23.74953995 38.58643647 -25 40 C-25.66 40 -26.32 40 -27 40 C-25.59266444 36.8264583 -23.89954895 34.68047402 -21.5 32.1875 C-12.84071429 22.63242611 -6.29643281 11.1959749 0 0 Z " fill="#3BA440" transform="translate(290,242)"/>
<path d="M0 0 C0.66 0 1.32 0 2 0 C2 14.19 2 28.38 2 43 C1.34 42.67 0.68 42.34 0 42 C-1.20550362 35.53411693 -0.81583904 29.58711806 -0.2578125 23.0625 C0.3112103 15.39811132 0.07368318 7.67942522 0 0 Z " fill="#39A73D" transform="translate(35,240)"/>
<path d="M0 0 C1.29858939 0.56775536 2.58870441 1.15491663 3.875 1.75 C4.59429687 2.07484375 5.31359375 2.3996875 6.0546875 2.734375 C8.35515358 4.23106377 8.8783863 5.54728834 10 8 C5.76417673 8.04938628 1.52850535 8.08571263 -2.70751953 8.10986328 C-4.14895547 8.11992963 -5.59037095 8.1335838 -7.03173828 8.15087891 C-9.10193934 8.17510012 -11.17187076 8.18647641 -13.2421875 8.1953125 C-15.11173096 8.21102295 -15.11173096 8.21102295 -17.01904297 8.22705078 C-20 8 -20 8 -22 6 C-14.74 5.67 -7.48 5.34 0 5 C0 4.34 0 3.68 0 3 C0 2.01 0 1.02 0 0 Z " fill="#36863B" transform="translate(133,327)"/>
<path d="M0 0 C1.53527344 0.05317383 1.53527344 0.05317383 3.1015625 0.10742188 C4.56722656 0.17219727 4.56722656 0.17219727 6.0625 0.23828125 C7.41021484 0.29495972 7.41021484 0.29495972 8.78515625 0.3527832 C11 0.6875 11 0.6875 13 2.6875 C10.35177988 4.01161006 8.51061806 3.70642401 5.5546875 3.56640625 C4.47832031 3.51806641 3.40195312 3.46972656 2.29296875 3.41992188 C1.16503906 3.36384766 0.03710938 3.30777344 -1.125 3.25 C-2.26066406 3.19779297 -3.39632813 3.14558594 -4.56640625 3.09179688 C-7.37786631 2.96185544 -10.18899465 2.82688086 -13 2.6875 C-13 2.0275 -13 1.3675 -13 0.6875 C-9.12183203 -1.25158399 -4.24615454 -0.19519476 0 0 Z " fill="#1D5420" transform="translate(277,39.3125)"/>
<path d="M0 0 C0.81434143 2.85160391 1.11881242 5.36626131 1.09765625 8.328125 C1.09443359 9.12734375 1.09121094 9.9265625 1.08789062 10.75 C1.07951172 11.575 1.07113281 12.4 1.0625 13.25 C1.05798828 14.09046875 1.05347656 14.9309375 1.04882812 15.796875 C1.03707961 17.86461401 1.01914522 19.93231624 1 22 C-1.77743622 19.46407997 -2.85971294 17.56743807 -3.203125 13.73046875 C-3.30243619 8.34283648 -2.9670454 4.69782189 0 0 Z " fill="#ECF7EC" transform="translate(175,226)"/>
<path d="M0 0 C0.33 0 0.66 0 1 0 C1.33 8.25 1.66 16.5 2 25 C-2.58149177 23.47283608 -5.11759167 22.49379975 -8.875 19.875 C-9.65617188 19.33617187 -10.43734375 18.79734375 -11.2421875 18.2421875 C-11.82226562 17.83226562 -12.40234375 17.42234375 -13 17 C-12.34 16.67 -11.68 16.34 -11 16 C-7.52085828 17.77379193 -4.31014019 19.92055296 -1 22 C-0.67 14.74 -0.34 7.48 0 0 Z " fill="#33A43D" transform="translate(163,299)"/>
<path d="M0 0 C2.38494054 3.17992072 3.78903422 5.42390466 5.25 9 C5.60578125 9.845625 5.9615625 10.69125 6.328125 11.5625 C7.05204912 14.18882935 6.9128421 15.47212957 6 18 C5.34 16.68 4.68 15.36 4 14 C3.34 14.66 2.68 15.32 2 16 C1.34 10.72 0.68 5.44 0 0 Z " fill="#E6F4E5" transform="translate(156,278)"/>
<path d="M0 0 C0.33 0 0.66 0 1 0 C1.01981934 0.73637695 1.03963867 1.47275391 1.06005859 2.23144531 C1.15537828 5.57132056 1.26502996 8.91057639 1.375 12.25 C1.4059375 13.40886719 1.436875 14.56773437 1.46875 15.76171875 C1.50742187 16.87675781 1.54609375 17.99179688 1.5859375 19.140625 C1.6173584 20.16704102 1.6487793 21.19345703 1.68115234 22.25097656 C1.99636625 24.96867073 2.61032351 26.66924435 4 29 C3.34 29.99 2.68 30.98 2 32 C1.34 32 0.68 32 0 32 C0 21.44 0 10.88 0 0 Z " fill="#EAF6EB" transform="translate(57,130)"/>
<path d="M0 0 C3.89558088 -0.11643304 7.79071258 -0.18732909 11.6875 -0.25 C12.79029297 -0.28351563 13.89308594 -0.31703125 15.02929688 -0.3515625 C23.2682306 -0.45112665 23.2682306 -0.45112665 27.26953125 2.015625 C27.84058594 2.67046875 28.41164063 3.3253125 29 4 C27.35 4.33 25.7 4.66 24 5 C24 4.01 24 3.02 24 2 C16.08 1.67 8.16 1.34 0 1 C0 0.67 0 0.34 0 0 Z " fill="#359439" transform="translate(91,315)"/>
<path d="M0 0 C0.85078125 0.00322266 1.7015625 0.00644531 2.578125 0.00976562 C3.46757812 0.01814453 4.35703125 0.02652344 5.2734375 0.03515625 C6.170625 0.03966797 7.0678125 0.04417969 7.9921875 0.04882812 C10.21100398 0.06063034 12.42968768 0.0770947 14.6484375 0.09765625 C14.6484375 0.42765625 14.6484375 0.75765625 14.6484375 1.09765625 C13.56304687 1.23042969 12.47765625 1.36320312 11.359375 1.5 C9.91405428 1.67831879 8.46874224 1.85670794 7.0234375 2.03515625 C5.95416016 2.16567383 5.95416016 2.16567383 4.86328125 2.29882812 C0.77251789 2.8054823 -3.28998885 3.38656055 -7.3515625 4.09765625 C-7.0215625 3.10765625 -6.6915625 2.11765625 -6.3515625 1.09765625 C-4.00303722 -0.07660639 -2.61382185 -0.01742548 0 0 Z " fill="#204F22" transform="translate(241.3515625,313.90234375)"/>
<path d="M0 0 C9.65293157 0.48264658 17.83625696 3.90510927 26 9 C25.01 9.495 25.01 9.495 24 10 C21.71484375 9.07421875 21.71484375 9.07421875 18.9375 7.6875 C13.5276458 5.12493748 8.08805433 3 2 3 C2 2.34 2 1.68 2 1 C1.34 0.67 0.68 0.34 0 0 Z " fill="#21A327" transform="translate(131,129)"/>
<path d="M0 0 C8.57142857 1 8.57142857 1 12 2 C12 2.66 12 3.32 12 4 C5.73 4 -0.54 4 -7 4 C-5 2 -5 2 -2.375 1.875 C-1.59125 1.91625 -0.8075 1.9575 0 2 C0 1.34 0 0.68 0 0 Z " fill="#206322" transform="translate(251,38)"/>
<path d="M0 0 C4.44606073 0.49400675 5.9455274 1.85568997 9 5 C11.28037349 6.45608264 13.61483694 7.71568143 16 9 C14.421875 9.74609375 14.421875 9.74609375 12 10 C9.59958109 8.77369903 7.47881286 7.54429316 5.25 6.0625 C4.64800781 5.67642578 4.04601562 5.29035156 3.42578125 4.89257812 C1.94328661 3.93954585 0.47064367 2.97121988 -1 2 C-0.67 1.34 -0.34 0.68 0 0 Z " fill="#2F7030" transform="translate(295,101)"/>
<path d="M0 0 C4.75 0.75 4.75 0.75 7 3 C9.9972345 5.10444124 12.51675796 6.83891932 16 8 C16 8.66 16 9.32 16 10 C11.30868408 9.49785035 8.4403566 8.31803532 4.625 5.5625 C3.75101563 4.94503906 2.87703125 4.32757813 1.9765625 3.69140625 C1.32429687 3.13324219 0.67203125 2.57507812 0 2 C0 1.34 0 0.68 0 0 Z " fill="#2E7530" transform="translate(224,54)"/>
<path d="M0 0 C4.455 1.98 4.455 1.98 9 4 C9 4.66 9 5.32 9 6 C9.78375 6.28875 10.5675 6.5775 11.375 6.875 C14 8 14 8 16 10 C11.44599886 10 10.06585211 9.10788594 6.3125 6.6875 C5.33925781 6.07261719 4.36601562 5.45773438 3.36328125 4.82421875 C1 3 1 3 0 0 Z " fill="#2C692F" transform="translate(311,111)"/>
<path d="M0 0 C0 0.99 0 1.98 0 3 C-0.73476563 3.11214844 -1.46953125 3.22429687 -2.2265625 3.33984375 C-5.08712883 4.02073912 -6.9065707 4.99856736 -9.375 6.5625 C-13.57193738 9.00895596 -16.20392906 9.51022031 -21 9 C-21 8.67 -21 8.34 -21 8 C-20.45472656 7.84144531 -19.90945312 7.68289062 -19.34765625 7.51953125 C-14.12148139 5.90254382 -9.62127165 3.82905213 -4.9453125 0.98828125 C-3 0 -3 0 0 0 Z " fill="#45A349" transform="translate(37,139)"/>
<path d="M0 0 C0.66 0 1.32 0 2 0 C2 1.32 2 2.64 2 4 C3.32 4.33 4.64 4.66 6 5 C3.6875 7.0625 3.6875 7.0625 1 9 C0.01 8.67 -0.98 8.34 -2 8 C-1.125 2.25 -1.125 2.25 0 0 Z " fill="#2EA63A" transform="translate(199,261)"/>
<path d="M0 0 C0.33 0.99 0.66 1.98 1 3 C-2.08809695 4.76462683 -3.23312136 5 -7 5 C-7.33 6.32 -7.66 7.64 -8 9 C-9.65 9.33 -11.3 9.66 -13 10 C-11.625 8 -11.625 8 -10 6 C-9.34 6 -8.68 6 -8 6 C-8 5.34 -8 4.68 -8 4 C-5.36 2.68 -2.72 1.36 0 0 Z " fill="#2C6B2E" transform="translate(21,122)"/>
<path d="M0 0 C0.66 0.33 1.32 0.66 2 1 C0.84826645 3.46800047 -0.04783565 5.04783565 -2 7 C-4.31765729 7.71927295 -6.65095874 8.3909893 -9 9 C-7.8483054 5.54491619 -7.01153326 4.89296376 -4 3 C-1.75 2.3125 -1.75 2.3125 0 2 C0 1.34 0 0.68 0 0 Z " fill="#2E7A31" transform="translate(229,318)"/>
<path d="M0 0 C1.4585872 0.64525977 2.91686137 1.2912272 4.375 1.9375 C5.59316406 2.47697266 5.59316406 2.47697266 6.8359375 3.02734375 C10.90378007 4.8556701 10.90378007 4.8556701 13 8 C8.86469356 8.33314203 6.93376536 7.68044053 3.6875 5.125 C2.99011719 4.59132813 2.29273437 4.05765625 1.57421875 3.5078125 C1.05472656 3.01023437 0.53523438 2.51265625 0 2 C0 1.34 0 0.68 0 0 Z " fill="#256E28" transform="translate(120,319)"/>
<path d="M0 0 C1.73426971 3.25666031 2.99026337 6.57452179 4.1875 10.0625 C4.55230469 11.10535156 4.91710937 12.14820313 5.29296875 13.22265625 C6 16 6 16 5 19 C4.73445312 18.30132812 4.46890625 17.60265625 4.1953125 16.8828125 C3.84210938 15.97273438 3.48890625 15.06265625 3.125 14.125 C2.77695313 13.22007812 2.42890625 12.31515625 2.0703125 11.3828125 C1.11469105 8.87782993 1.11469105 8.87782993 -1 7 C-0.625 3.375 -0.625 3.375 0 0 Z " fill="#259F2E" transform="translate(172,259)"/>
<path d="M0 0 C0.33 0.99 0.66 1.98 1 3 C-0.26239712 3.86658615 -1.53527501 4.71792059 -2.8125 5.5625 C-3.87404297 6.27599609 -3.87404297 6.27599609 -4.95703125 7.00390625 C-7 8 -7 8 -10 7 C-7.2180632 3.72713318 -3.72045933 2.03572303 0 0 Z " fill="#2A6D2B" transform="translate(147,41)"/>
<path d="M0 0 C0.66 0.99 1.32 1.98 2 3 C0.68 3 -0.64 3 -2 3 C-2 3.66 -2 4.32 -2 5 C-4.30276574 7.21747812 -5.52480092 7.96760006 -8.75 8.1875 C-9.4925 8.125625 -10.235 8.06375 -11 8 C-9.625 6.5 -9.625 6.5 -8 5 C-7.34 5 -6.68 5 -6 5 C-5.67 4.34 -5.34 3.68 -5 3 C-3.35857037 1.9590934 -1.69287785 0.95495674 0 0 Z " fill="#2C7C2E" transform="translate(75,87)"/>
<path d="M0 0 C0.33 0.99 0.66 1.98 1 3 C-2.79692186 5.82561627 -5.18569279 7.56638908 -10 7 C-6.80331012 4.3513141 -3.60513403 2.06007659 0 0 Z " fill="#2B652D" transform="translate(94,75)"/>
<path d="M0 0 C1.33804688 0.04060547 1.33804688 0.04060547 2.703125 0.08203125 C3.37859375 0.11683594 4.0540625 0.15164062 4.75 0.1875 C2.06907309 2.86842691 0.35832637 2.57420257 -3.375 2.8125 C-4.47070312 2.88726563 -5.56640625 2.96203125 -6.6953125 3.0390625 C-7.53835937 3.08804687 -8.38140625 3.13703125 -9.25 3.1875 C-6.10408067 0.38704377 -4.182936 -0.16511589 0 0 Z " fill="#225123" transform="translate(176.25,25.8125)"/>
<path d="M0 0 C1.64936913 0.78427352 3.29441127 1.57765259 4.9375 2.375 C5.85402344 2.81585938 6.77054687 3.25671875 7.71484375 3.7109375 C10 5 10 5 11 7 C6.15833214 6.54961229 3.50331713 5.40027839 0 2 C0 1.34 0 0.68 0 0 Z " fill="#2E6631" transform="translate(327,121)"/>
<path d="M0 0 C0.33 0.99 0.66 1.98 1 3 C-1.55068845 5.35448165 -2.71017358 5.98327924 -6.25 6.1875 C-7.1575 6.125625 -8.065 6.06375 -9 6 C-6.11964908 3.75972706 -3.15133488 1.83827868 0 0 Z " fill="#2A652C" transform="translate(218,326)"/>
<path d="M0 0 C0 0.33 0 0.66 0 1 C-1.98 1 -3.96 1 -6 1 C-6.28875 1.639375 -6.5775 2.27875 -6.875 2.9375 C-8 5 -8 5 -10 6 C-9.63088042 3.32388302 -9.15144437 2.1568531 -7.25 0.1875 C-4.3995411 -1.31690887 -3.01911587 -0.92250763 0 0 Z " fill="#E7F6E9" transform="translate(185,254)"/>
<path d="M0 0 C1.60031344 3.20062687 0.03173691 5.72271806 -1 9 C-1.66 9 -2.32 9 -3 9 C-3.66 9.66 -4.32 10.32 -5 11 C-4.32902328 6.80639551 -2.1441606 3.59665648 0 0 Z " fill="#24A22C" transform="translate(144,231)"/>
<path d="M0 0 C0.33 0.99 0.66 1.98 1 3 C-0.2065625 3.433125 -0.2065625 3.433125 -1.4375 3.875 C-4.1326468 4.73262568 -4.1326468 4.73262568 -5 7 C-5.99 6.67 -6.98 6.34 -8 6 C-7.34 5.67 -6.68 5.34 -6 5 C-6 4.34 -6 3.68 -6 3 C-4.02 2.01 -2.04 1.02 0 0 Z " fill="#28632C" transform="translate(103,69)"/>
<path d="M0 0 C0.33 0 0.66 0 1 0 C1 3.3 1 6.6 1 10 C-0.32 8.35 -1.64 6.7 -3 5 C-2.03114628 3.31503702 -1.03013277 1.64821244 0 0 Z " fill="#F3F9F3" transform="translate(293,152)"/>
<path d="M0 0 C0.33 0.99 0.66 1.98 1 3 C-1.25 4.5625 -1.25 4.5625 -4 6 C-5.32 5.67 -6.64 5.34 -8 5 C-4.04 2.525 -4.04 2.525 0 0 Z " fill="#275F29" transform="translate(44,107)"/>
<path d="M0 0 C-0.125 1.875 -0.125 1.875 -1 4 C-4.0625 5.25 -4.0625 5.25 -7 6 C-5.61469317 1.84407951 -4.52657396 0 0 0 Z " fill="#307931" transform="translate(53,102)"/>
<path d="M0 0 C1.31602523 0.61754259 2.62773556 1.24428742 3.9375 1.875 C4.66839844 2.22304688 5.39929688 2.57109375 6.15234375 2.9296875 C8 4 8 4 9 6 C5.21213403 5.4739075 2.82847776 4.61896089 0 2 C0 1.34 0 0.68 0 0 Z " fill="#2C672E" transform="translate(191,33)"/>
<path d="M0 0 C0.33 0.99 0.66 1.98 1 3 C-3.75 6 -3.75 6 -6 6 C-5.67 5.01 -5.34 4.02 -5 3 C-4.34 3 -3.68 3 -3 3 C-3 2.34 -3 1.68 -3 1 C-2.01 0.67 -1.02 0.34 0 0 Z " fill="#306B32" transform="translate(83,82)"/>
<path d="M0 0 C2.31 0.33 4.62 0.66 7 1 C7 1.99 7 2.98 7 4 C5.1875 4.6875 5.1875 4.6875 3 5 C1.25 3.6875 1.25 3.6875 0 2 C0 1.34 0 0.68 0 0 Z " fill="#368139" transform="translate(57,311)"/>
<path d="M0 0 C1.32 0 2.64 0 4 0 C4.99 1.98 5.98 3.96 7 6 C6.01 6 5.02 6 4 6 C0 1.54285714 0 1.54285714 0 0 Z " fill="#287C2A" transform="translate(338,128)"/>
<path d="M0 0 C0.33 0.99 0.66 1.98 1 3 C-2.22791555 5.1519437 -3.28400809 5.20086443 -7 5 C-2.25 1.125 -2.25 1.125 0 0 Z " fill="#2F6B2E" transform="translate(35,113)"/>
<path d="M0 0 C0.33 0.99 0.66 1.98 1 3 C-0.98 3.99 -2.96 4.98 -5 6 C-5.66 5.34 -6.32 4.68 -7 4 C-4.69 2.68 -2.38 1.36 0 0 Z " fill="#275E28" transform="translate(111,64)"/>
<path d="M0 0 C1.07349791 4.29399165 0.79682816 5.19495213 -1 9 C-1.66 9 -2.32 9 -3 9 C-2.01 6.03 -1.02 3.06 0 0 Z " fill="#EBF8ED" transform="translate(72,174)"/>
<path d="M0 0 C0.99 0 1.98 0 3 0 C3 0.66 3 1.32 3 2 C5.475 2.99 5.475 2.99 8 4 C7.34 4.66 6.68 5.32 6 6 C1.125 3.375 1.125 3.375 0 0 Z " fill="#2B652E" transform="translate(216,49)"/>
<path d="M0 0 C0.66 0 1.32 0 2 0 C1.67 0.66 1.34 1.32 1 2 C0.67 1.34 0.34 0.68 0 0 Z " fill="#28CD28" transform="translate(130,321)"/>
<path d="M0 0 C3 1 3 1 3 1 Z " fill="#00F100" transform="translate(335,149)"/>
<path d="M0 0 C3 1 3 1 3 1 Z " fill="#42AE42" transform="translate(331,149)"/>
<path d="M0 0 C0.66 0 1.32 0 2 0 C1.67 0.66 1.34 1.32 1 2 C0.67 1.34 0.34 0.68 0 0 Z " fill="#00F500" transform="translate(333,120)"/>
<path d="" fill="#00F800" transform="translate(0,0)"/>
<path d="" fill="#3FB83F" transform="translate(0,0)"/>
<path d="" fill="#3FB83F" transform="translate(0,0)"/>
<path d="" fill="#00F800" transform="translate(0,0)"/>
<path d="" fill="#00F800" transform="translate(0,0)"/>
<path d="M0 0 C2 1 2 1 2 1 Z " fill="#00F100" transform="translate(64,259)"/>
<path d="" fill="#3CBB3C" transform="translate(0,0)"/>
<path d="" fill="#00F800" transform="translate(0,0)"/>
<path d="" fill="#00F800" transform="translate(0,0)"/>
<path d="" fill="#3CBB3C" transform="translate(0,0)"/>
<path d="" fill="#505050" transform="translate(0,0)"/>
<path d="" fill="#787878" transform="translate(0,0)"/>
<path d="" fill="#00F100" transform="translate(0,0)"/>
<path d="" fill="#505050" transform="translate(0,0)"/>
<path d="" fill="#00F100" transform="translate(0,0)"/>
<path d="" fill="#00F100" transform="translate(0,0)"/>
<path d="" fill="#00F100" transform="translate(0,0)"/>
<path d="" fill="#00F100" transform="translate(0,0)"/>
<path d="" fill="#00F100" transform="translate(0,0)"/>
<path d="" fill="#787878" transform="translate(0,0)"/>
<path d="" fill="#50A150" transform="translate(0,0)"/>
<path d="" fill="#787878" transform="translate(0,0)"/>
<path d="" fill="#787878" transform="translate(0,0)"/>
<path d="" fill="#50A150" transform="translate(0,0)"/>
<path d="" fill="#00F100" transform="translate(0,0)"/>
<path d="" fill="#00F100" transform="translate(0,0)"/>
<path d="" fill="#50A150" transform="translate(0,0)"/>
<path d="" fill="#50A150" transform="translate(0,0)"/>
<path d="" fill="#44AC44" transform="translate(0,0)"/>
<path d="" fill="#787878" transform="translate(0,0)"/>
<path d="" fill="#787878" transform="translate(0,0)"/>
<path d="" fill="#787878" transform="translate(0,0)"/>
<path d="" fill="#00F100" transform="translate(0,0)"/>
<path d="" fill="#00F100" transform="translate(0,0)"/>
<path d="" fill="#00F100" transform="translate(0,0)"/>
<path d="" fill="#787878" transform="translate(0,0)"/>
<path d="" fill="#00F100" transform="translate(0,0)"/>
<path d="" fill="#00F100" transform="translate(0,0)"/>
<path d="" fill="#00F100" transform="translate(0,0)"/>
<path d="" fill="#00F100" transform="translate(0,0)"/>
<path d="" fill="#00F100" transform="translate(0,0)"/>
<path d="" fill="#787878" transform="translate(0,0)"/>
<path d="" fill="#787878" transform="translate(0,0)"/>
<path d="" fill="#00F100" transform="translate(0,0)"/>
<path d="" fill="#00F100" transform="translate(0,0)"/>
<path d="" fill="#00F100" transform="translate(0,0)"/>
<path d="" fill="#00F100" transform="translate(0,0)"/>
<path d="" fill="#50A150" transform="translate(0,0)"/>
<path d="" fill="#00F100" transform="translate(0,0)"/>
<path d="" fill="#00F100" transform="translate(0,0)"/>
<path d="" fill="#787878" transform="translate(0,0)"/>
<path d="" fill="#787878" transform="translate(0,0)"/>
<path d="" fill="#787878" transform="translate(0,0)"/>
<path d="" fill="#00F100" transform="translate(0,0)"/>
<path d="" fill="#00F100" transform="translate(0,0)"/>
<path d="" fill="#787878" transform="translate(0,0)"/>
<path d="" fill="#00F100" transform="translate(0,0)"/>
<path d="" fill="#787878" transform="translate(0,0)"/>
<path d="" fill="#00F100" transform="translate(0,0)"/>
<path d="" fill="#00F100" transform="translate(0,0)"/>
<path d="" fill="#00F100" transform="translate(0,0)"/>
<path d="" fill="#787878" transform="translate(0,0)"/>
<path d="" fill="#00F100" transform="translate(0,0)"/>
<path d="" fill="#00F100" transform="translate(0,0)"/>
<path d="" fill="#00F100" transform="translate(0,0)"/>
<path d="" fill="#787878" transform="translate(0,0)"/>
<path d="" fill="#787878" transform="translate(0,0)"/>
<path d="" fill="#787878" transform="translate(0,0)"/>
<path d="" fill="#00F100" transform="translate(0,0)"/>
<path d="" fill="#787878" transform="translate(0,0)"/>
<path d="" fill="#00F100" transform="translate(0,0)"/>
<path d="" fill="#787878" transform="translate(0,0)"/>
<path d="" fill="#00F100" transform="translate(0,0)"/>
<path d="" fill="#00F100" transform="translate(0,0)"/>
<path d="" fill="#787878" transform="translate(0,0)"/>
<path d="" fill="#00F100" transform="translate(0,0)"/>
<path d="" fill="#787878" transform="translate(0,0)"/>
<path d="" fill="#00F100" transform="translate(0,0)"/>
<path d="" fill="#3CB53C" transform="translate(0,0)"/>
<path d="" fill="#00F100" transform="translate(0,0)"/>
<path d="" fill="#00F100" transform="translate(0,0)"/>
<path d="" fill="#00F100" transform="translate(0,0)"/>
<path d="" fill="#00F100" transform="translate(0,0)"/>
<path d="" fill="#00F100" transform="translate(0,0)"/>
<path d="" fill="#787878" transform="translate(0,0)"/>
<path d="" fill="#00F100" transform="translate(0,0)"/>
<path d="" fill="#787878" transform="translate(0,0)"/>
<path d="" fill="#787878" transform="translate(0,0)"/>
<path d="" fill="#00F100" transform="translate(0,0)"/>
<path d="" fill="#00F100" transform="translate(0,0)"/>
<path d="" fill="#00F100" transform="translate(0,0)"/>
<path d="" fill="#00F100" transform="translate(0,0)"/>
<path d="" fill="#00F100" transform="translate(0,0)"/>
<path d="" fill="#00F100" transform="translate(0,0)"/>
<path d="" fill="#00F100" transform="translate(0,0)"/>
<path d="" fill="#00F100" transform="translate(0,0)"/>
<path d="" fill="#787878" transform="translate(0,0)"/>
<path d="" fill="#787878" transform="translate(0,0)"/>
<path d="" fill="#00F100" transform="translate(0,0)"/>
<path d="" fill="#787878" transform="translate(0,0)"/>
<path d="" fill="#00F100" transform="translate(0,0)"/>
<path d="" fill="#787878" transform="translate(0,0)"/>
<path d="" fill="#00F100" transform="translate(0,0)"/>
<path d="" fill="#787878" transform="translate(0,0)"/>
<path d="" fill="#787878" transform="translate(0,0)"/>
<path d="" fill="#00F100" transform="translate(0,0)"/>
<path d="" fill="#787878" transform="translate(0,0)"/>
<path d="" fill="#787878" transform="translate(0,0)"/>
<path d="" fill="#787878" transform="translate(0,0)"/>
<path d="" fill="#00F100" transform="translate(0,0)"/>
<path d="" fill="#000000" transform="translate(0,0)"/>
<path d="" fill="#787878" transform="translate(0,0)"/>
<path d="" fill="#000000" transform="translate(0,0)"/>
<path d="" fill="#787878" transform="translate(0,0)"/>
</svg>
